<?xml version="1.0" standalone="no"?>
<!DOCTYPE svg PUBLIC "-//W3C//DTD SVG 20010904//EN"
 "http://www.w3.org/TR/2001/REC-SVG-20010904/DTD/svg10.dtd">
<svg version="1.0" xmlns="http://www.w3.org/2000/svg"
 width="1000.000000pt" height="1000.000000pt" viewBox="0 0 1000.000000 1000.000000"
 preserveAspectRatio="xMidYMid meet">
<metadata>
Created by potrace 1.11, written by Peter Selinger 2001-2013
</metadata>
<g transform="translate(0.000000,1000.000000) scale(0.100000,-0.100000)"
fill="#000000" stroke="none">
<path d="M3090 9389 c0 -5 -9 -6 -20 -4 -11 2 -25 -2 -32 -9 -7 -7 -17 -13
-22 -13 -17 0 -127 -93 -111 -93 4 0 -3 -16 -14 -36 -12 -19 -19 -40 -16 -45
4 -5 2 -9 -3 -9 -6 0 -10 -587 -10 -1546 -1 -851 -3 -1549 -6 -1551 -2 -2 -24
8 -48 23 -23 15 -44 26 -44 23 -1 -2 -10 3 -20 12 -11 9 -35 25 -54 34 -19 10
-37 21 -40 24 -3 4 -20 13 -37 20 -18 8 -33 17 -33 22 0 5 -6 6 -14 3 -7 -3
-16 2 -19 10 -4 9 -13 16 -20 16 -8 0 -20 7 -27 15 -7 8 -16 13 -20 10 -4 -3
-11 2 -14 11 -3 8 -10 12 -16 9 -5 -3 -10 -1 -10 5 0 6 -4 8 -10 5 -5 -3 -10
-1 -10 4 0 6 -6 11 -14 11 -7 0 -19 7 -26 15 -7 8 -16 12 -21 9 -5 -3 -9 -1
-9 4 0 6 -11 13 -25 16 -14 4 -25 11 -25 17 0 6 -4 7 -10 4 -5 -3 -10 -2 -10
3 0 5 -29 24 -65 42 -36 18 -65 37 -65 42 0 5 -6 8 -12 6 -7 -3 -21 4 -32 14
-11 10 -26 18 -33 18 -7 0 -13 4 -13 9 0 5 -11 12 -25 15 -14 4 -25 11 -25 17
0 6 -4 7 -10 4 -5 -3 -10 -2 -10 3 0 4 -16 14 -35 22 -19 8 -35 18 -35 22 0 5
-4 7 -9 4 -5 -3 -14 1 -21 9 -7 8 -19 15 -26 15 -8 0 -14 5 -14 10 0 6 -6 10
-14 10 -7 0 -19 7 -26 15 -7 8 -16 12 -21 9 -5 -3 -9 -1 -9 4 0 5 -8 12 -17
16 -10 3 -31 11 -48 17 -42 15 -145 27 -145 17 0 -4 -10 -8 -23 -8 -13 0 -27
-3 -31 -7 -4 -5 -12 -9 -17 -9 -5 -1 -13 -2 -18 -3 -16 -2 -111 -103 -111
-117 0 -8 -5 -14 -11 -14 -6 0 -9 -6 -6 -14 3 -7 1 -18 -5 -24 -5 -5 -11 -34
-12 -64 -2 -31 -7 -61 -11 -68 -5 -8 -4 -11 1 -7 6 3 11 -9 11 -29 1 -21 -3
-32 -10 -27 -6 4 -7 1 -2 -6 11 -18 13 -91 3 -97 -5 -3 -5 -11 -1 -17 10 -14
10 -1488 0 -1504 -4 -6 -3 -14 2 -17 7 -5 8 -45 1 -81 -2 -6 -1 -12 0 -15 6
-16 4 -122 -2 -127 -5 -2 -5 -10 -1 -16 10 -16 11 -47 2 -73 -4 -12 -5 -25 -2
-28 10 -10 10 -109 0 -123 -4 -6 -4 -13 0 -16 10 -6 9 -769 0 -784 -4 -7 -4
-14 0 -16 10 -7 8 -400 -2 -417 -5 -8 -4 -11 3 -6 14 8 12 -36 -3 -46 -6 -5
-6 -8 0 -8 12 0 12 -161 0 -180 -5 -8 -4 -11 3 -6 14 8 12 -36 -3 -46 -6 -5
-6 -8 0 -8 12 0 12 -161 0 -180 -5 -8 -4 -11 2 -7 6 4 11 -4 11 -18 0 -14 -6
-25 -12 -25 -7 0 -7 -3 -1 -8 12 -9 14 -192 2 -192 -4 0 -5 -5 -1 -12 12 -19
12 -68 0 -68 -7 0 -7 -3 -1 -8 14 -10 14 -65 1 -74 -7 -5 -7 -8 -1 -8 14 0 14
-70 1 -70 -7 0 -8 -3 -1 -8 14 -10 14 -65 1 -74 -7 -5 -7 -8 -1 -8 14 0 14
-70 1 -70 -7 0 -8 -3 -1 -8 14 -10 14 -65 1 -74 -7 -5 -7 -8 -1 -8 14 0 14
-70 1 -70 -7 0 -8 -3 -1 -8 14 -10 14 -65 1 -74 -7 -5 -7 -8 -1 -8 14 0 14
-70 1 -70 -7 0 -8 -3 -1 -8 14 -10 14 -65 1 -74 -7 -5 -7 -8 -1 -8 14 0 14
-70 1 -70 -7 0 -8 -3 -1 -8 14 -10 15 -72 1 -72 -7 0 -7 -3 -1 -8 14 -10 14
-65 1 -74 -7 -5 -7 -8 -1 -8 12 0 12 -51 0 -70 -6 -9 -4 -11 5 -5 10 6 12 1 8
-19 -3 -14 -1 -29 3 -32 5 -3 9 -14 9 -25 0 -10 9 -28 20 -39 11 -11 20 -27
20 -35 0 -8 3 -15 8 -15 4 0 20 -12 35 -26 15 -14 48 -34 73 -45 46 -21 164
-32 164 -16 0 5 7 7 15 4 8 -4 17 -2 20 3 4 6 15 10 26 10 10 0 19 5 19 10 0
6 5 10 11 10 6 0 23 9 39 20 15 11 30 17 34 13 3 -3 6 0 6 7 0 7 3 11 6 7 3
-3 15 3 27 13 11 11 24 17 29 14 4 -3 8 -1 8 4 0 4 21 19 48 32 26 13 61 34
78 47 17 12 34 20 37 16 4 -3 7 -1 7 5 0 7 3 11 8 10 4 -1 30 13 59 31 29 18
55 32 59 31 4 -1 10 2 13 7 8 11 61 43 84 50 9 3 17 10 17 15 0 5 4 6 10 3 5
-3 10 -2 10 4 0 5 15 15 34 21 19 6 36 14 38 18 2 4 96 61 211 126 114 65 210
122 213 127 3 5 9 7 14 4 4 -3 13 2 20 10 7 8 19 15 26 15 8 0 14 5 14 10 0 6
5 10 10 10 6 0 28 11 49 24 21 14 42 22 45 19 3 -4 6 -1 6 5 0 6 16 16 34 23
19 7 33 15 31 19 -2 4 12 12 31 19 18 7 34 17 34 22 0 5 9 9 19 9 11 0 21 4
23 9 2 5 10 11 18 13 14 3 29 13 55 36 7 6 20 12 28 12 8 0 22 9 32 20 10 11
21 17 26 15 4 -3 14 0 21 7 18 17 45 33 88 55 19 9 41 23 48 30 7 7 19 13 26
13 8 0 19 7 26 15 7 8 16 12 21 9 5 -3 9 0 9 5 0 6 7 11 15 11 8 0 15 5 15 10
0 6 4 10 9 10 6 0 38 17 73 37 35 21 66 36 71 35 4 -1 7 3 7 9 0 5 5 7 10 4 6
-3 10 -2 10 3 0 5 17 18 38 27 20 10 39 21 42 24 3 3 19 13 35 21 17 8 32 18
35 21 3 3 19 12 35 21 57 29 100 53 105 59 3 4 29 19 58 34 29 15 55 31 58 36
3 5 10 7 15 4 5 -4 9 -1 9 4 0 6 7 11 15 11 8 0 15 5 15 11 0 5 4 8 8 5 5 -3
21 6 36 19 16 14 32 22 36 20 4 -3 13 2 20 10 7 8 15 15 19 15 3 0 6 -291 6
-647 0 -426 3 -651 10 -655 6 -5 6 -8 -2 -8 -9 0 -7 -12 5 -45 9 -25 20 -45
25 -45 4 0 6 -4 2 -9 -7 -13 93 -114 105 -106 6 3 10 2 10 -3 0 -23 150 -48
176 -30 7 5 16 8 20 7 20 -5 63 14 57 24 -4 6 0 8 10 4 10 -3 17 -2 17 4 0 6
5 7 10 4 6 -3 10 -2 10 3 0 10 37 25 53 23 5 -1 6 2 3 7 -2 4 24 23 60 41 35
18 64 37 64 42 0 5 3 8 8 7 14 -3 62 22 62 32 0 5 3 9 8 8 10 -2 64 24 79 38
7 7 34 22 60 35 26 13 53 28 60 34 6 7 25 18 42 25 17 7 31 17 31 23 0 6 3 8
6 4 4 -3 26 7 50 24 24 16 44 27 44 24 0 -4 7 1 16 9 8 9 20 14 25 11 5 -4 9
-1 9 4 0 6 7 11 15 11 8 0 15 4 15 8 0 4 20 18 45 30 25 12 45 26 45 32 0 5 7
7 15 4 8 -4 15 -1 15 4 0 6 10 14 22 18 12 3 28 13 36 20 7 8 18 12 23 9 5 -4
9 -1 9 4 0 6 7 11 15 11 8 0 15 5 15 10 0 6 5 10 10 10 6 0 29 12 53 27 23 14
47 26 54 26 7 0 10 4 7 9 -3 4 2 8 10 8 9 0 16 5 16 11 0 5 5 7 10 4 6 -3 10
-1 10 6 0 7 3 9 6 6 4 -3 18 3 32 13 13 11 28 20 33 20 4 0 25 12 46 26 21 14
54 33 73 42 19 9 41 22 48 29 7 7 20 13 28 13 8 0 14 5 14 10 0 6 3 9 8 8 4
-1 30 13 59 31 29 18 56 33 60 33 4 1 14 8 21 15 8 7 18 11 23 8 5 -4 9 -3 9
2 0 9 62 47 73 45 4 -1 7 2 7 7 0 5 12 14 28 21 47 20 72 34 72 43 0 4 5 5 10
2 6 -3 10 -2 10 3 0 6 11 13 25 16 14 4 25 11 25 16 0 6 9 10 20 10 11 0 20 3
20 8 0 4 30 23 68 42 37 19 69 38 72 41 5 6 105 64 178 104 20 11 40 24 43 29
4 5 12 5 19 1 8 -5 11 -4 7 2 -4 6 6 16 23 22 17 5 30 15 30 20 0 6 3 10 8 10
17 -3 31 2 44 14 7 7 29 21 48 31 19 10 47 25 62 33 16 8 28 19 28 25 0 6 3 9
6 5 5 -5 121 57 134 72 3 3 10 7 15 8 16 2 71 33 60 33 -10 0 85 53 127 71 16
6 25 15 22 20 -3 5 2 6 10 3 9 -3 16 -2 16 4 0 6 14 15 30 21 17 5 30 15 30
22 0 7 3 9 6 6 6 -6 62 20 74 34 3 3 17 12 31 20 15 8 46 25 70 39 24 13 47
23 52 22 4 -1 7 3 7 10 0 6 3 9 6 6 3 -4 14 2 25 13 11 11 24 17 29 14 6 -4
10 -2 10 2 0 9 59 47 72 48 4 0 13 6 19 12 7 7 17 13 22 13 4 0 28 14 53 30
24 17 44 28 44 25 0 -4 7 1 16 9 8 9 19 14 24 11 5 -3 10 -1 12 3 3 9 110 73
200 122 27 14 56 32 65 41 10 8 21 15 26 17 19 5 73 36 79 46 4 6 8 7 8 3 0
-5 13 1 29 12 16 12 34 21 40 21 6 0 11 3 11 8 0 4 18 15 40 25 22 9 40 22 40
29 0 6 3 8 6 5 4 -4 19 2 33 11 14 10 47 29 74 43 26 13 47 28 47 32 0 5 4 6
9 2 6 -3 14 2 19 11 5 9 11 15 13 14 7 -3 63 24 77 37 7 7 24 16 38 19 13 3
21 10 18 15 -3 5 2 9 11 9 9 0 36 14 61 30 24 17 44 28 44 25 0 -8 74 49 107
81 12 12 19 25 16 28 -4 3 -2 6 4 6 9 0 33 47 37 72 1 3 4 10 8 14 4 4 3 13
-3 21 -7 7 -7 13 -2 13 5 0 10 20 9 45 0 25 -4 45 -9 45 -4 0 -6 4 -3 8 16 27
-88 162 -137 178 -9 3 -15 10 -11 15 3 5 2 9 -3 7 -12 -3 -93 36 -93 44 0 5
-7 8 -15 8 -8 0 -15 5 -15 11 0 5 -4 8 -9 4 -6 -3 -14 3 -20 12 -6 10 -11 14
-11 9 0 -4 -11 -1 -24 8 -14 8 -42 25 -63 37 -21 12 -51 30 -68 40 -16 10 -52
30 -80 45 -27 14 -53 32 -57 38 -4 6 -8 7 -8 3 0 -5 -12 1 -26 12 -15 12 -33
21 -40 21 -8 0 -14 5 -14 10 0 6 -7 10 -15 10 -8 0 -15 5 -15 11 0 5 -5 7 -10
4 -6 -3 -10 -3 -10 2 0 4 -10 13 -23 18 -37 18 -132 70 -137 76 -10 11 -188
109 -199 109 -6 0 -11 4 -11 8 0 4 -22 19 -50 33 -27 13 -50 27 -50 32 0 4 -6
7 -14 7 -7 0 -19 7 -26 15 -7 9 -18 14 -23 12 -6 -2 -21 7 -35 20 -13 12 -28
20 -33 17 -5 -3 -9 -1 -9 4 0 5 -8 12 -17 15 -18 6 -73 37 -83 47 -6 6 -50 31
-105 60 -22 11 -62 34 -90 51 -27 16 -58 33 -67 36 -10 3 -18 9 -18 14 0 5 -6
9 -14 9 -7 0 -19 7 -26 15 -7 8 -16 13 -20 10 -5 -3 -11 -1 -15 5 -3 6 -25 20
-48 31 -23 12 -44 24 -47 28 -4 5 -26 17 -115 65 -11 6 -23 16 -27 21 -4 6 -8
6 -8 2 0 -4 -6 -3 -12 3 -7 6 -58 36 -113 67 -55 31 -102 59 -105 62 -3 3 -26
17 -52 30 -27 13 -48 28 -48 32 0 5 -3 9 -7 8 -16 -2 -53 14 -53 23 0 5 -4 6
-10 3 -6 -3 -10 -2 -10 3 0 5 -8 12 -17 15 -19 6 -75 38 -83 48 -3 3 -20 12
-37 20 -18 8 -33 16 -33 20 0 3 -16 11 -35 19 -19 8 -35 17 -35 22 0 4 -6 8
-14 8 -7 0 -19 7 -26 15 -10 12 -9 16 6 22 11 3 31 14 45 24 14 10 29 16 33
12 3 -3 6 -1 6 6 0 7 5 9 10 6 6 -3 10 -2 10 2 0 11 60 47 60 36 0 -4 5 0 11
10 5 9 15 17 22 17 7 0 36 16 65 35 29 19 50 29 47 22 -4 -7 0 -4 8 6 8 9 19
17 26 17 6 0 11 4 11 10 0 5 3 9 8 8 4 -1 18 5 32 13 34 22 166 97 215 123 22
12 42 23 45 26 3 3 14 12 24 20 18 13 19 13 12 0 -7 -13 -6 -13 6 0 7 8 30 24
50 34 21 11 38 23 38 28 0 5 5 6 10 3 6 -3 10 -1 10 5 0 6 5 8 10 5 6 -3 10
-1 10 5 0 6 5 8 10 5 6 -3 10 -3 10 2 0 4 23 19 50 32 28 14 46 29 43 35 -3 6
-3 8 2 4 7 -6 27 3 116 53 13 8 29 21 36 29 7 8 13 11 13 7 0 -4 15 7 34 25
39 38 73 99 79 145 3 17 8 37 13 44 5 8 3 10 -5 4 -10 -6 -11 -3 -2 14 7 11 8
21 4 21 -5 0 -10 12 -11 28 -1 15 -6 28 -12 30 -5 2 -6 10 -4 17 7 17 -75 128
-96 131 -6 0 -63 37 -70 44 -3 3 -12 6 -20 8 -8 2 -16 8 -18 13 -2 5 -12 9
-23 9 -10 0 -19 4 -19 8 0 5 -18 17 -40 27 -22 10 -40 22 -40 27 0 4 -9 8 -19
8 -11 0 -21 3 -23 8 -1 4 -23 18 -48 31 -25 14 -47 27 -50 30 -3 3 -26 17 -52
30 -27 13 -48 28 -48 33 0 5 -4 6 -10 3 -5 -3 -10 -1 -10 4 0 6 -3 10 -7 9
-11 -3 -56 23 -71 41 -11 13 -12 13 -6 1 6 -11 2 -10 -13 3 -11 9 -25 17 -31
17 -7 0 -12 5 -12 12 0 6 -3 8 -6 5 -4 -3 -18 3 -32 13 -13 11 -31 20 -38 20
-8 0 -14 5 -14 10 0 6 -6 10 -13 10 -7 0 -22 8 -33 18 -11 9 -26 18 -34 20 -8
2 -22 10 -31 18 -9 8 -19 11 -22 7 -4 -3 -7 -2 -7 4 0 6 -8 13 -17 17 -10 3
-31 15 -48 26 -16 11 -37 23 -45 27 -36 16 -175 99 -178 106 -2 4 -8 5 -13 1
-5 -3 -9 0 -9 5 0 6 -7 11 -15 11 -8 0 -15 5 -15 12 0 6 -3 9 -6 5 -3 -3 -39
14 -79 39 -40 24 -78 44 -84 44 -7 0 -9 5 -6 10 3 6 -1 10 -10 10 -16 0 -51
17 -71 36 -7 6 -26 17 -43 24 -17 7 -31 17 -31 22 0 5 -4 7 -8 4 -5 -3 -18 2
-28 12 -11 9 -26 18 -34 20 -8 2 -16 8 -18 13 -2 5 -7 9 -11 9 -8 0 -103 53
-227 127 -28 17 -61 34 -73 38 -12 3 -19 11 -15 16 3 5 2 9 -3 7 -12 -3 -83
34 -83 44 0 4 -6 8 -14 8 -8 0 -43 18 -77 40 -35 22 -76 45 -91 51 -16 6 -28
15 -28 20 0 5 -9 9 -20 9 -11 0 -20 5 -20 10 0 6 -7 10 -15 10 -8 0 -15 5 -15
11 0 5 -4 7 -10 4 -5 -3 -10 -1 -10 5 0 6 -4 8 -10 5 -5 -3 -10 -2 -10 3 0 5
-8 12 -17 15 -10 4 -40 20 -68 37 -27 17 -58 33 -67 37 -10 3 -18 8 -18 12 0
4 -16 13 -35 21 -19 8 -35 16 -35 19 0 3 -18 15 -40 25 -22 11 -40 23 -40 28
0 6 -6 8 -12 6 -7 -3 -18 0 -25 6 -33 29 -43 36 -43 31 0 -4 -13 3 -29 14 -16
12 -34 21 -40 21 -6 0 -11 5 -11 10 0 6 -7 10 -14 10 -8 0 -34 13 -58 28 -24
16 -58 35 -75 43 -18 8 -33 16 -33 19 0 3 -21 17 -47 30 -27 14 -49 28 -51 33
-2 4 -8 7 -12 7 -5 0 -73 38 -152 84 -79 46 -159 91 -178 101 -19 10 -37 21
-40 24 -3 3 -31 19 -62 36 -32 16 -58 34 -58 39 0 5 -3 6 -6 3 -4 -4 -19 2
-34 13 -16 11 -33 20 -39 20 -6 0 -11 4 -11 9 0 5 -10 13 -22 17 -13 3 -30 12
-38 19 -8 8 -21 15 -29 17 -8 2 -22 9 -32 17 -22 18 -149 90 -171 97 -10 4
-18 10 -18 15 0 5 -6 9 -13 9 -7 0 -36 15 -65 34 -28 19 -52 33 -52 31 0 -3
-24 11 -54 30 -29 19 -56 31 -60 28 -3 -4 -6 -1 -6 6 0 6 -10 15 -22 20 -24 9
-206 114 -223 129 -11 9 -46 25 -58 26 -4 1 -12 8 -17 16 -5 8 -10 12 -10 7 0
-4 -11 0 -25 9 -13 8 -37 18 -52 20 -53 8 -123 10 -123 3z m398 -802 c2 -4 8
-5 13 -1 5 3 9 0 9 -5 0 -6 6 -11 14 -11 8 0 16 -3 18 -7 3 -7 55 -37 115 -67
13 -6 23 -15 23 -19 0 -5 4 -6 9 -3 5 3 11 -1 15 -9 3 -8 13 -15 23 -15 10 0
29 -9 43 -20 14 -11 31 -20 38 -20 6 0 12 -4 12 -8 0 -5 16 -14 35 -22 19 -8
35 -17 35 -21 0 -4 12 -12 28 -18 26 -10 61 -30 72 -41 5 -5 75 -43 117 -64
13 -6 23 -14 23 -18 0 -5 6 -8 13 -8 7 0 29 -11 50 -25 20 -14 37 -22 37 -18
0 4 4 3 8 -2 7 -11 49 -37 142 -88 30 -17 58 -34 61 -40 3 -5 10 -8 15 -8 5 1
16 -5 24 -12 8 -7 20 -13 25 -15 6 -1 17 -8 25 -15 8 -7 20 -14 25 -16 22 -7
91 -44 105 -56 8 -8 22 -15 30 -17 8 -2 21 -10 28 -18 12 -13 13 -13 7 0 -4 8
1 6 9 -4 9 -11 23 -21 33 -22 9 -2 19 -7 22 -12 3 -5 21 -15 39 -23 17 -8 32
-17 32 -21 0 -5 7 -8 15 -8 8 0 15 -5 15 -12 0 -6 3 -8 6 -5 4 3 18 -2 32 -13
13 -11 28 -17 33 -14 5 3 9 1 9 -5 0 -5 20 -19 45 -31 25 -12 45 -26 45 -31 0
-5 3 -8 8 -7 15 3 82 -33 82 -44 0 -6 3 -8 6 -5 4 4 19 -2 34 -13 16 -11 36
-20 45 -20 9 0 13 -4 10 -10 -3 -5 1 -10 9 -10 9 0 16 -5 16 -11 0 -5 5 -7 10
-4 6 3 10 1 10 -5 0 -6 5 -8 10 -5 6 3 10 3 10 -2 0 -4 23 -19 50 -32 28 -14
50 -29 50 -34 0 -4 5 -5 10 -2 6 3 10 1 10 -4 0 -6 9 -11 19 -11 10 0 22 -7
25 -16 4 -9 9 -14 13 -11 3 4 18 -2 33 -13 16 -11 33 -20 39 -20 6 0 11 -5 11
-11 0 -5 5 -7 10 -4 6 3 10 1 10 -4 0 -6 7 -11 15 -11 8 0 15 -3 15 -8 0 -4
15 -13 33 -21 17 -8 50 -26 72 -41 22 -15 50 -30 63 -34 12 -4 22 -12 22 -17
0 -6 5 -7 10 -4 6 3 10 2 10 -3 0 -4 16 -14 35 -22 19 -8 35 -18 35 -23 0 -5
7 -6 16 -3 8 3 13 2 10 -2 -3 -5 24 -24 60 -42 35 -19 64 -38 64 -41 0 -4 14
-10 30 -14 17 -4 30 -11 30 -16 0 -5 7 -9 15 -9 8 0 15 -4 15 -10 0 -5 5 -10
11 -10 6 0 23 -9 37 -19 15 -10 30 -19 35 -20 7 -1 26 -11 85 -48 15 -10 29
-18 32 -18 10 0 85 -49 92 -59 4 -6 8 -7 8 -3 0 4 24 -8 54 -27 30 -19 57 -32
60 -29 3 4 6 1 6 -5 0 -7 6 -12 14 -12 7 0 19 -7 26 -15 7 -8 16 -12 21 -9 5
3 9 0 9 -5 0 -6 6 -11 13 -11 7 0 24 -10 37 -22 14 -13 25 -22 25 -20 0 2 8 0
17 -3 10 -4 16 -11 13 -16 -3 -4 4 -6 15 -4 11 2 20 1 20 -3 0 -4 21 -18 48
-32 26 -13 49 -27 52 -30 6 -6 42 -27 95 -54 22 -12 42 -24 45 -27 3 -4 25
-17 50 -29 25 -12 47 -26 50 -30 3 -3 13 -9 23 -13 21 -8 23 -27 2 -27 -8 0
-15 -5 -15 -12 0 -6 -3 -8 -7 -5 -3 4 -13 1 -22 -7 -9 -7 -37 -25 -62 -39 -80
-44 -94 -52 -111 -66 -10 -8 -18 -10 -18 -6 0 5 -11 -2 -25 -15 -14 -13 -25
-20 -25 -15 0 4 -8 1 -17 -7 -10 -9 -36 -25 -58 -37 -53 -29 -124 -69 -155
-89 -14 -9 -28 -16 -32 -15 -3 2 -12 -4 -18 -12 -7 -8 -19 -15 -26 -15 -8 0
-14 -3 -14 -8 0 -4 -20 -16 -45 -27 -25 -11 -45 -23 -45 -27 0 -5 -7 -8 -15
-8 -8 0 -15 -4 -15 -8 0 -5 -17 -16 -37 -25 -21 -9 -60 -30 -88 -47 -84 -51
-89 -52 -142 -23 -26 15 -50 30 -53 33 -3 3 -21 14 -40 23 -19 10 -53 28 -75
42 -22 14 -47 28 -55 32 -8 3 -33 18 -55 31 -22 14 -42 25 -45 26 -3 0 -25 12
-49 28 -25 15 -51 28 -58 28 -7 0 -13 5 -13 11 0 5 -13 15 -30 20 -16 6 -30
15 -30 20 0 5 -9 9 -20 9 -11 0 -20 5 -20 10 0 6 -7 10 -15 10 -8 0 -15 5 -15
12 0 6 -3 8 -7 5 -3 -4 -12 -2 -20 4 -19 16 -75 48 -95 55 -10 4 -18 11 -18
16 0 5 -4 6 -10 3 -5 -3 -10 -2 -10 4 0 6 -11 13 -24 17 -14 3 -32 14 -42 25
-9 10 -23 19 -31 19 -14 0 -93 48 -104 64 -4 5 -11 6 -17 2 -6 -3 -12 -2 -14
2 -1 4 -32 25 -68 46 -36 20 -72 41 -80 46 -53 32 -110 62 -114 61 -3 0 -15 8
-26 19 -11 11 -27 20 -35 20 -8 0 -15 3 -15 8 0 8 -86 46 -115 50 -49 7 -105
7 -105 1 0 -4 -8 -6 -17 -5 -26 4 -103 -41 -142 -82 -35 -37 -66 -98 -62 -119
1 -7 -2 -13 -6 -13 -5 0 -8 -368 -8 -817 1 -450 -3 -826 -7 -835 -5 -10 -15
-18 -23 -18 -7 0 -15 -4 -17 -8 -1 -5 -30 -23 -63 -42 -33 -18 -63 -38 -67
-44 -4 -6 -8 -7 -8 -3 0 4 -17 -4 -37 -18 -21 -14 -43 -25 -50 -25 -7 0 -13
-3 -13 -7 0 -5 -23 -19 -50 -32 -28 -14 -50 -29 -50 -34 0 -4 -4 -6 -9 -2 -5
3 -12 1 -16 -5 -4 -6 -11 -7 -17 -4 -6 4 -8 3 -5 -3 4 -6 -17 -22 -46 -36 -70
-36 -111 -60 -119 -72 -5 -7 -8 -7 -8 0 0 6 -7 2 -14 -8 -8 -10 -16 -17 -18
-15 -4 3 -176 -95 -195 -112 -7 -6 -13 -8 -13 -6 0 3 -21 -8 -47 -24 -26 -17
-52 -30 -58 -30 -7 0 -10 204 -10 670 0 379 -4 670 -9 670 -4 0 -3 7 5 16 7 9
9 18 3 22 -12 9 -17 35 -5 28 5 -4 9 3 8 14 -1 11 -5 20 -10 20 -5 0 -4 7 3
15 6 8 8 20 4 27 -11 17 -13 48 -3 42 4 -2 7 5 6 16 -1 11 -6 20 -11 20 -6 0
-5 5 2 12 9 9 9 15 -1 27 -9 11 -9 13 0 8 8 -5 11 0 10 13 -1 11 -5 20 -10 20
-6 0 -6 5 0 13 7 9 10 112 3 112 -1 0 -3 10 -4 22 -1 12 1 20 5 17 4 -2 7 5 6
16 -1 11 -5 20 -10 20 -5 0 -4 7 3 15 9 11 10 18 1 28 -6 8 -8 17 -4 20 9 10
10 59 1 85 -4 13 -4 21 0 18 11 -6 8 57 -3 74 -5 8 -4 11 1 7 6 -3 9 12 8 36
-1 23 -3 42 -4 42 -1 0 -3 10 -4 22 -1 12 0 20 4 18 8 -5 6 67 -3 82 -4 6 -3
14 3 18 6 4 7 12 3 18 -9 15 -12 47 -3 42 8 -5 6 72 -3 81 -3 4 -3 14 1 23 6
14 8 77 2 91 -5 14 -6 49 0 45 8 -5 6 72 -3 81 -3 4 -3 14 1 23 6 13 8 156 2
171 -5 15 -6 49 0 45 5 -3 5 72 0 85 -1 3 -1 10 0 15 7 33 4 196 -5 199 -7 3
-7 7 0 13 9 7 12 59 5 88 -1 6 -1 15 0 20 7 33 4 196 -5 199 -7 3 -7 7 0 13
12 10 15 103 2 103 -4 0 -5 5 -1 12 12 18 11 102 -1 111 -7 4 -7 10 0 15 14
10 14 102 1 102 -6 0 -5 4 2 9 8 4 14 12 14 16 0 4 -6 12 -14 16 -8 6 -9 12
-3 17 13 9 14 95 0 104 -6 5 -6 8 2 8 7 0 10 9 7 23 -11 58 -12 67 -6 71 4 2
7 34 6 70 l-1 65 31 -17 c17 -9 33 -20 34 -25z m-1548 -2627 c0 -5 12 -13 28
-19 30 -12 134 -71 142 -80 3 -3 23 -15 45 -27 54 -28 89 -48 95 -54 3 -3 31
-19 62 -35 32 -17 58 -34 58 -38 0 -5 5 -5 10 -2 6 3 10 3 10 -2 0 -4 23 -19
50 -32 28 -14 50 -29 50 -33 0 -4 9 -8 19 -8 11 0 23 -5 26 -10 4 -6 25 -20
48 -31 23 -12 44 -25 47 -28 3 -3 26 -17 53 -30 26 -13 47 -28 47 -33 0 -5 4
-7 9 -3 5 3 17 -2 25 -11 9 -8 16 -12 16 -7 0 4 4 4 8 -2 4 -5 21 -18 37 -27
28 -16 30 -21 32 -78 1 -34 4 -64 7 -67 3 -4 1 -12 -5 -19 -7 -8 -7 -14 0 -18
6 -4 7 -16 2 -29 -5 -12 -5 -31 -1 -42 4 -11 3 -25 -2 -32 -5 -7 -5 -14 1 -17
7 -4 7 -15 1 -31 -6 -15 -6 -27 0 -30 6 -4 6 -14 -1 -26 -7 -14 -7 -24 0 -33
6 -7 8 -15 5 -18 -8 -9 -10 -168 -1 -168 4 0 3 -9 -3 -21 -8 -14 -8 -24 -1
-33 6 -7 8 -16 5 -19 -7 -7 -7 -187 0 -194 2 -3 1 -15 -4 -28 -5 -14 -5 -26 3
-34 8 -8 8 -11 0 -11 -7 0 -10 -9 -7 -22 3 -13 5 -27 5 -33 -1 -41 -2 -302 0
-310 1 -5 1 -14 -1 -20 -5 -29 -4 -105 2 -105 4 0 3 -11 -2 -24 -5 -15 -5 -27
3 -35 8 -8 8 -11 0 -11 -6 0 -9 -13 -7 -32 2 -18 6 -60 8 -93 6 -74 8 -83 28
-120 28 -51 93 -111 133 -121 14 -3 28 -10 30 -15 3 -4 12 -6 20 -2 8 3 15 1
15 -4 0 -6 22 -8 49 -7 69 5 83 8 111 24 14 8 28 13 33 12 4 -1 7 3 7 10 0 6
3 8 7 5 3 -4 18 3 31 15 14 13 22 16 18 8 -5 -9 -2 -8 7 3 8 9 21 17 30 17 8
0 17 4 19 9 2 4 35 25 73 46 39 21 73 43 77 49 5 7 8 7 8 1 0 -7 3 -7 8 0 4 6
27 21 52 34 25 13 52 30 61 37 8 8 23 14 32 14 9 0 18 4 22 9 3 6 31 24 63 42
31 18 60 37 64 43 4 6 8 8 8 3 0 -4 18 4 41 18 39 25 67 41 159 93 25 14 61
35 80 47 37 23 77 46 225 129 50 27 92 54 93 58 2 4 10 8 17 8 8 0 20 6 27 13
7 6 27 19 43 27 17 8 38 21 47 29 10 8 18 11 18 7 0 -4 10 2 22 14 16 15 24
17 30 8 4 -7 8 -9 8 -4 0 5 8 2 18 -7 9 -8 24 -17 32 -19 15 -3 29 -13 55 -36
8 -7 15 -11 15 -7 0 3 12 -2 26 -12 44 -29 88 -53 107 -59 9 -4 17 -10 17 -15
0 -5 4 -9 9 -9 6 0 36 -15 68 -34 32 -19 62 -34 67 -34 5 0 12 -4 15 -9 6 -8
35 -26 136 -83 22 -13 54 -31 70 -41 17 -10 53 -30 80 -45 28 -14 53 -32 57
-38 4 -6 8 -7 8 -3 0 5 12 -1 26 -12 15 -11 30 -18 35 -15 5 3 9 0 9 -6 0 -6
14 -16 30 -21 17 -6 30 -15 30 -19 0 -5 10 -12 22 -16 20 -6 20 -7 -9 -19 -17
-7 -34 -18 -37 -24 -4 -6 -16 -11 -27 -11 -10 0 -19 -3 -19 -8 0 -4 -17 -16
-37 -27 -21 -10 -46 -26 -56 -34 -9 -8 -17 -10 -17 -5 0 5 -4 5 -8 -1 -7 -10
-34 -27 -89 -56 -18 -9 -29 -19 -26 -23 4 -3 -3 -6 -13 -6 -11 0 -30 -9 -42
-20 -12 -12 -22 -18 -22 -15 0 4 -13 -3 -29 -14 -15 -11 -31 -18 -35 -14 -3 3
-6 0 -6 -7 0 -7 -3 -10 -6 -7 -4 4 -15 -3 -25 -15 -11 -11 -19 -18 -19 -14 0
9 -92 -44 -102 -59 -5 -6 -8 -6 -8 0 0 7 -3 7 -8 0 -4 -5 -27 -21 -52 -34 -25
-14 -48 -29 -52 -35 -4 -6 -8 -7 -8 -3 0 4 -17 -4 -37 -18 -21 -14 -43 -25
-50 -25 -7 0 -13 -4 -13 -8 0 -5 -16 -16 -35 -25 -19 -9 -65 -35 -102 -57 -37
-23 -72 -42 -77 -43 -6 -1 -19 -10 -30 -19 -11 -10 -32 -24 -48 -30 -15 -7
-28 -17 -28 -21 0 -5 -4 -6 -9 -3 -5 3 -14 -1 -21 -9 -7 -8 -18 -15 -25 -15
-7 0 -18 -7 -25 -15 -7 -8 -16 -13 -20 -10 -5 3 -10 2 -12 -3 -4 -9 -197 -122
-209 -122 -5 0 -9 -5 -9 -11 0 -5 -5 -7 -10 -4 -6 3 -13 0 -16 -9 -3 -8 -11
-13 -19 -10 -7 3 -15 -2 -19 -11 -3 -9 -10 -13 -16 -10 -5 3 -10 3 -10 -2 0
-4 -10 -13 -23 -19 -61 -31 -92 -48 -97 -53 -3 -3 -14 -11 -25 -17 -63 -34
-93 -51 -114 -66 -13 -10 -27 -16 -31 -13 -4 3 -11 -2 -14 -11 -3 -8 -10 -12
-16 -9 -5 3 -10 1 -10 -4 0 -6 -7 -11 -15 -11 -8 0 -15 -5 -15 -11 0 -5 -4 -7
-10 -4 -5 3 -10 2 -10 -3 0 -5 -8 -12 -17 -16 -10 -3 -34 -15 -53 -26 -66 -39
-75 -44 -83 -45 -4 0 -12 -7 -17 -15 -5 -8 -10 -11 -10 -7 0 5 -7 1 -16 -7 -8
-9 -22 -16 -30 -16 -8 0 -14 -4 -14 -10 0 -5 -6 -10 -14 -10 -8 0 -22 -7 -30
-16 -9 -8 -16 -13 -16 -9 0 3 -17 -6 -37 -20 -21 -14 -41 -25 -46 -25 -4 0
-20 -8 -35 -19 -54 -37 -187 -114 -199 -114 -7 0 -13 -3 -13 -6 0 -3 -20 -17
-45 -30 -25 -13 -45 -28 -45 -33 0 -5 -4 -6 -10 -3 -5 3 -10 1 -10 -6 0 -7 -3
-9 -6 -6 -4 4 -19 -2 -34 -13 -16 -11 -33 -20 -39 -20 -6 0 -11 -4 -11 -10 0
-5 -5 -10 -11 -10 -6 0 -23 -9 -39 -20 -15 -11 -30 -17 -34 -13 -3 3 -6 1 -6
-5 0 -7 -7 -12 -15 -12 -7 0 -19 -8 -24 -17 -6 -10 -11 -14 -11 -9 0 4 -11 1
-24 -8 -28 -18 -77 -46 -156 -89 -30 -16 -62 -36 -70 -43 -8 -7 -26 -17 -40
-23 -14 -6 -43 -22 -65 -36 -22 -14 -52 -30 -67 -36 -16 -6 -28 -14 -28 -18 0
-4 -16 -13 -35 -21 -19 -8 -35 -17 -35 -22 0 -4 -6 -8 -14 -8 -7 0 -19 -7 -26
-15 -7 -8 -16 -12 -21 -9 -5 3 -9 2 -9 -3 0 -4 -15 -14 -32 -22 -18 -8 -35
-17 -38 -21 -3 -3 -27 -19 -53 -34 -36 -21 -52 -25 -60 -17 -9 9 -9 16 0 30 9
14 9 21 0 30 -9 9 -9 16 0 30 9 14 9 21 0 30 -9 9 -9 16 1 31 6 10 8 22 3 25
-11 6 -9 150 1 161 4 4 3 14 -4 21 -9 11 -9 19 0 33 6 11 8 22 3 25 -14 8 -11
76 3 69 7 -4 6 -2 -1 7 -7 7 -13 21 -13 32 0 12 4 16 13 11 8 -5 8 -2 -2 9
-10 13 -11 20 -2 31 7 8 8 17 3 20 -12 7 -12 95 0 102 5 3 3 12 -3 21 -10 11
-10 19 -2 33 9 13 9 20 0 29 -9 9 -9 16 0 30 9 14 9 21 0 30 -9 9 -9 16 1 31
6 10 8 22 3 25 -14 8 -11 76 3 69 7 -4 6 -2 -1 7 -17 18 -17 53 0 43 8 -5 7
-2 -2 10 -10 12 -11 20 -3 28 8 8 7 16 -1 30 -10 15 -9 21 3 28 8 5 10 10 5
10 -14 0 -18 47 -5 55 6 4 5 14 -3 26 -10 16 -9 21 3 29 8 5 10 10 5 10 -14 0
-18 47 -5 55 6 4 5 14 -3 26 -10 16 -9 21 3 29 8 5 10 10 5 10 -14 0 -18 47
-5 55 6 4 5 14 -3 26 -10 16 -9 21 3 29 8 5 10 10 5 10 -15 0 -17 50 -2 50 7
0 8 3 2 8 -16 11 -18 44 -3 53 7 5 8 9 3 9 -14 0 -18 47 -5 55 6 4 5 14 -3 26
-10 16 -9 21 3 29 8 5 10 10 5 10 -15 0 -17 50 -2 50 7 0 8 3 2 8 -16 11 -18
44 -3 53 7 5 8 9 3 9 -15 0 -17 50 -2 50 7 0 8 3 2 8 -15 11 -16 65 -2 74 6 4
7 8 2 8 -15 0 -17 50 -2 50 7 0 8 3 2 8 -16 11 -18 44 -3 53 7 5 8 9 3 9 -15
0 -17 50 -2 50 8 0 8 3 2 8 -14 9 -14 1223 -1 1215 5 -4 6 0 1 7 -14 22 -16
122 -3 114 7 -5 8 -2 3 7 -14 21 -14 120 -1 112 6 -4 5 1 -3 10 -10 13 -11 20
-2 30 6 8 8 17 4 21 -12 12 -10 226 2 226 6 0 7 3 0 8 -14 10 -16 114 -1 105
6 -4 5 1 -3 11 -13 15 -13 19 0 27 8 5 9 9 4 9 -14 0 -14 193 0 202 6 5 5 8
-3 8 -7 0 -11 4 -8 9 7 11 46 3 46 -9z m3036 10 c14 -14 74 -49 97 -56 9 -4
17 -11 17 -16 0 -5 4 -7 9 -3 5 3 12 1 16 -4 3 -5 18 -16 33 -24 36 -18 76
-41 82 -47 3 -3 19 -12 35 -20 17 -8 49 -27 73 -43 23 -15 42 -25 42 -21 0 4
8 0 18 -8 22 -19 110 -69 118 -67 4 0 10 -3 13 -8 3 -5 65 -42 136 -83 72 -40
133 -78 136 -83 3 -5 9 -7 12 -5 4 1 15 -4 25 -12 10 -8 25 -16 33 -18 7 -2
16 -7 19 -11 3 -4 29 -20 59 -35 29 -14 64 -35 78 -46 14 -11 29 -17 34 -14 5
3 9 0 9 -5 0 -6 7 -11 15 -11 8 0 15 -4 15 -10 0 -5 9 -10 20 -10 11 0 20 -4
20 -10 0 -5 7 -10 15 -10 8 0 15 -4 15 -8 0 -5 16 -14 35 -22 19 -8 35 -17 35
-22 0 -4 6 -8 13 -8 6 0 32 -13 56 -29 25 -17 48 -28 52 -25 4 2 9 1 11 -3 4
-11 86 -63 98 -63 5 0 10 -5 10 -10 0 -6 3 -9 8 -8 12 3 62 -25 62 -34 0 -5 4
-7 9 -4 5 3 14 -1 21 -9 7 -8 19 -15 26 -15 8 0 14 -4 14 -10 0 -5 9 -10 20
-10 11 0 20 -4 20 -10 0 -5 7 -10 15 -10 8 0 15 -5 15 -11 0 -5 5 -7 10 -4 6
3 10 3 10 -2 0 -4 23 -19 50 -32 28 -14 50 -29 50 -33 0 -4 9 -8 20 -8 11 0
20 -4 20 -9 0 -5 12 -14 28 -20 34 -13 86 -44 90 -53 2 -5 8 -8 13 -8 5 0 39
-18 75 -40 36 -22 68 -40 71 -40 3 0 18 -9 34 -21 16 -11 36 -22 43 -23 7 -1
21 -9 30 -19 10 -9 24 -17 32 -17 8 0 14 -4 14 -8 0 -5 16 -14 35 -22 19 -8
35 -17 35 -22 0 -4 7 -8 15 -8 8 0 15 -5 15 -11 0 -5 4 -8 9 -4 5 3 17 -2 25
-11 9 -8 16 -13 16 -9 0 4 7 -1 16 -9 8 -9 22 -16 30 -16 8 0 14 -5 14 -11 0
-5 4 -8 9 -5 5 4 11 3 13 -2 3 -7 38 -29 129 -80 75 -42 84 -47 89 -52 3 -3
30 -18 60 -34 30 -16 61 -36 68 -44 6 -9 12 -13 12 -9 0 9 114 -54 118 -65 2
-4 12 -8 23 -8 10 0 19 -4 19 -10 0 -5 20 -18 44 -28 24 -11 47 -25 50 -31 4
-6 12 -9 17 -6 5 4 9 3 9 -2 0 -4 21 -19 48 -32 26 -14 55 -31 65 -39 9 -9 17
-11 17 -6 0 5 4 4 8 -1 9 -14 102 -68 102 -60 0 3 10 -3 22 -15 12 -11 28 -20
35 -20 7 0 13 -4 13 -10 0 -5 7 -10 15 -10 8 0 15 -5 15 -11 0 -5 4 -8 9 -4 5
3 12 1 15 -4 4 -5 31 -22 61 -37 30 -16 55 -32 55 -36 0 -4 5 -8 11 -8 6 0 17
-6 24 -14 12 -12 8 -17 -30 -35 -25 -12 -45 -26 -45 -31 0 -6 -3 -9 -7 -8 -8
2 -64 -23 -73 -32 -5 -5 -39 -25 -109 -62 -23 -12 -41 -26 -41 -30 0 -5 -4 -6
-10 -3 -5 3 -10 1 -10 -5 0 -6 -4 -8 -10 -5 -5 3 -10 2 -10 -3 0 -6 -11 -13
-25 -16 -14 -4 -25 -11 -25 -17 0 -6 -4 -7 -10 -4 -5 3 -10 1 -10 -4 0 -6 -6
-11 -14 -11 -7 0 -19 -7 -26 -15 -7 -8 -16 -12 -21 -9 -5 3 -9 2 -9 -3 0 -4
-10 -13 -23 -19 -62 -31 -92 -48 -97 -53 -3 -4 -26 -18 -52 -31 -27 -14 -48
-28 -48 -32 0 -5 -9 -8 -20 -8 -11 0 -23 -6 -26 -14 -3 -8 -19 -18 -35 -21
-16 -4 -29 -10 -29 -14 0 -5 -18 -16 -40 -26 -22 -10 -40 -21 -40 -24 0 -3
-15 -12 -32 -20 -18 -8 -52 -27 -76 -43 -24 -15 -48 -26 -53 -23 -5 4 -12 -1
-15 -9 -3 -9 -12 -16 -20 -16 -7 0 -18 -8 -23 -17 -6 -10 -11 -14 -11 -9 0 5
-9 1 -20 -9 -11 -10 -20 -15 -20 -11 0 4 -20 -7 -44 -23 -24 -17 -46 -27 -50
-24 -3 4 -6 0 -6 -7 0 -7 -3 -11 -6 -7 -3 3 -11 1 -18 -4 -18 -16 -178 -109
-188 -109 -4 0 -8 -5 -8 -11 0 -5 -4 -7 -10 -4 -5 3 -10 1 -10 -4 0 -6 -4 -11
-10 -11 -5 0 -47 -23 -94 -50 -47 -28 -89 -50 -95 -50 -6 0 -11 -4 -11 -8 0
-4 -27 -21 -60 -37 -33 -17 -60 -33 -60 -37 0 -5 -7 -8 -15 -8 -8 0 -15 -5
-15 -11 0 -5 -4 -8 -9 -5 -5 3 -14 -1 -21 -9 -7 -8 -18 -15 -24 -15 -7 0 -22
-9 -34 -20 -12 -12 -22 -18 -22 -14 0 3 -7 1 -15 -6 -8 -7 -15 -9 -15 -6 0 6
-12 -2 -45 -32 -8 -7 -15 -11 -15 -7 0 3 -13 -3 -28 -14 -16 -11 -34 -21 -42
-23 -7 -2 -20 -9 -29 -16 -26 -22 -131 -81 -131 -74 0 4 -4 2 -8 -4 -6 -10
-97 -64 -149 -88 -13 -6 -23 -15 -23 -19 0 -5 -4 -5 -10 -2 -5 3 -10 2 -10 -4
0 -5 -22 -20 -50 -33 -27 -13 -50 -27 -50 -31 0 -5 -4 -5 -10 -2 -5 3 -10 1
-10 -4 0 -6 -6 -10 -12 -8 -7 1 -12 -4 -11 -10 2 -7 0 -12 -5 -11 -10 3 -104
-44 -126 -64 -10 -10 -23 -15 -28 -12 -4 3 -8 1 -8 -4 0 -6 -11 -13 -25 -16
-14 -4 -25 -11 -25 -16 0 -6 -9 -10 -20 -10 -11 0 -20 -4 -20 -8 0 -5 -18 -17
-40 -27 -22 -10 -40 -22 -40 -27 0 -4 -6 -8 -14 -8 -7 0 -25 -9 -40 -21 -14
-11 -26 -18 -26 -15 0 5 -63 -34 -87 -54 -7 -6 -13 -8 -13 -5 0 4 -13 -3 -29
-14 -16 -12 -34 -21 -40 -21 -6 0 -11 -5 -11 -12 0 -6 -3 -8 -7 -5 -3 4 -20
-4 -37 -16 -17 -13 -46 -30 -63 -38 -18 -8 -33 -17 -33 -21 0 -5 -5 -8 -11 -8
-6 0 -24 -9 -40 -21 -16 -11 -29 -18 -29 -15 0 3 -16 -6 -36 -19 -20 -14 -43
-25 -51 -25 -8 0 -12 -4 -9 -9 3 -5 -6 -12 -21 -16 -16 -3 -30 -10 -33 -15 -8
-12 -103 -61 -108 -55 -8 8 -6 1090 2 1104 4 6 11 9 16 6 5 -3 11 -1 15 4 7
12 188 117 194 112 2 -1 8 4 13 13 5 9 13 14 17 11 5 -2 16 4 26 15 10 11 21
18 25 15 4 -2 17 5 28 16 12 11 22 17 22 14 0 -4 13 3 29 14 16 12 32 21 36
21 3 0 26 13 49 30 24 16 46 26 50 23 3 -4 6 -1 6 6 0 7 4 10 8 7 5 -3 14 3
22 14 7 10 19 16 27 13 7 -3 13 0 13 7 0 6 5 8 10 5 6 -3 10 -2 10 3 0 5 18
17 40 28 22 10 40 22 40 27 0 4 9 7 20 7 11 0 20 4 20 10 0 5 11 12 25 16 14
3 25 10 25 15 0 5 7 9 15 9 8 0 15 5 15 10 0 6 3 9 8 8 12 -3 62 25 62 34 0 5
4 7 9 4 5 -3 14 0 20 8 6 7 29 21 51 31 22 10 40 22 40 27 0 5 4 7 9 4 5 -3
14 1 21 9 7 8 19 15 26 15 8 0 14 5 14 11 0 5 4 8 9 4 6 -3 14 3 20 12 6 10
11 14 11 10 0 -5 14 1 30 13 17 12 30 18 30 13 0 -4 4 -3 8 2 9 13 35 29 90
56 23 12 42 26 42 31 0 6 7 8 15 4 8 -3 15 -1 15 4 0 5 8 11 18 14 33 11 102
84 128 137 21 41 26 66 26 119 0 38 -5 77 -11 88 -6 11 -7 22 -4 26 3 3 1 6
-5 6 -6 0 -14 10 -17 21 -9 28 -61 80 -105 105 -19 10 -37 21 -40 24 -5 5 -19
13 -99 58 -25 14 -63 36 -83 49 -21 12 -40 23 -43 23 -4 0 -117 65 -155 90 -8
6 -24 15 -35 20 -11 6 -38 21 -60 35 -22 13 -62 36 -90 51 -27 14 -65 36 -85
49 -69 43 -135 79 -142 77 -5 -1 -8 3 -8 8 0 6 -7 10 -15 10 -8 0 -15 3 -15 8
0 4 -23 18 -50 31 -28 14 -50 29 -50 35 0 5 -3 7 -6 3 -3 -3 -24 5 -45 19 -21
13 -43 24 -48 24 -5 0 -11 3 -13 8 -1 4 -23 18 -48 31 -25 14 -47 27 -50 30
-3 3 -30 19 -60 35 -30 16 -62 35 -71 42 -9 8 -19 11 -22 7 -4 -3 -7 -2 -7 4
0 6 -9 13 -20 16 -13 3 -20 14 -21 29 0 31 0 1060 0 1076 1 15 13 16 27 2z"/>
</g>
</svg>
